{"title":"Aashiqui 2 (Mashup) - (Video Song)","uid":8772948,"size":107329578,"categoryP":"video","categoryS":"music_videos","magnet":"?xt=urn:btih:5035f6451123eb23c3f38a8433964765596fdc21&amp;dn=Aashiqui+2+%28Mashup%29+-+%28Video+Song%29&amp;tr=udp%3A%2F%2Ftracker.openbittorrent.com%3A80&amp;tr=udp%3A%2F%2Fopen.demonii.com%3A1337&amp;tr=udp%3A%2F%2Ftracker.coppersurfer.tk%3A6969&amp;tr=udp%3A%2F%2Fexodus.desync.com%3A6969","seeders":1,"leechers":1,"uploader":"raju0341","files":1,"time":1375492839,"description":"screenshot==&gt;&gt; \n &lt;a href=&quot;\nhttp://s23.postimg.org/hfmmzwywb/vvv.jpg&quot; rel=&quot;nofollow&quot; target=&quot;_NEW&quot;&gt;\nhttp://s23.postimg.org/hfmmzwywb/vvv.jpg&lt;/a&gt; &lt;a href=&quot;\nhttp://s23.postimg.org/5gb4sltbf/vb_cf.jpg&quot; rel=&quot;nofollow&quot; target=&quot;_NEW&quot;&gt;\nhttp://s23.postimg.org/5gb4sltbf/vb_cf.jpg&lt;/a&gt; &lt;a href=&quot;\nhttp://s23.postimg.org/biirj3hrf/trg.jpg&quot; rel=&quot;nofollow&quot; target=&quot;_NEW&quot;&gt;\nhttp://s23.postimg.org/biirj3hrf/trg.jpg&lt;/a&gt; &lt;a href=&quot;\nhttp://s23.postimg.org/76u5u3auj/g_m.jpg&quot; rel=&quot;nofollow&quot; target=&quot;_NEW&quot;&gt;\nhttp://s23.postimg.org/76u5u3auj/g_m.jpg&lt;/a&gt; &lt;a href=&quot;\nhttp://s23.postimg.org/au9x05j1n/bn_n.jpg&quot; rel=&quot;nofollow&quot; target=&quot;_NEW&quot;&gt;\nhttp://s23.postimg.org/au9x05j1n/bn_n.jpg&lt;/a&gt;\n\n\n\ndescription==&gt;&gt;\n\nFormat : AVI\nFormat/Info : Audio Video Interleave\nFile size : 102 MiB\nDuration : 5mn 2s\nOverall bit rate : 2 835 Kbps\n\n\nVideo #0\nID : 0\nFormat : MPEG-4 Visual\nFormat profile : Simple@L1\nFormat settings, BVOP : No\nFormat settings, QPel : No\nFormat settings, GMC : No warppoints\nFormat settings, Matrix : Default (H.263)\nCodec ID : DX50\nCodec ID/Hint : DivX 5\nDuration : 5mn 2s\nBit rate : 2 694 Kbps\nWidth : 1 080 pixels\nHeight : 454 pixels\nDisplay aspect ratio : 2.40:1\nFrame rate : 25.000 fps\nColor space : YUV\nChroma subsampling : 4:2:0\nBit depth : 8 bits\nScan type : Progressive\nCompression mode : Lossy\nBits/(Pixel*Frame) : 0.220\nStream size : 97.3 MiB (95%)\nWriting library : Lavc53.42.0\n\n\nAudio #1\nID : 1\nFormat : MPEG Audio\nFormat version : Version 1\nFormat profile : Layer 3\nCodec ID : 55\nCodec ID/Hint : MP3\nDuration : 5mn 2s\nSource duration : 5mn 2s\nBit rate mode : Constant\nBit rate : 128 Kbps\nChannel(s) : 2 channels\nSampling rate : 44.1 KHz\nCompression mode : Lossy\nStream size : 4.62 MiB (5%)\nAlignment : Split accross interleaves\nInterleave, duration : 26 ms (0.65 video frame)\n","torrent":{"xt":"urn:btih:5035f6451123eb23c3f38a8433964765596fdc21","amp;dn":"Aashiqui+2+%28Mashup%29+-+%28Video+Song%29","amp;tr":["udp%3A%2F%2Ftracker.openbittorrent.com%3A80","udp%3A%2F%2Fopen.demonii.com%3A1337","udp%3A%2F%2Ftracker.coppersurfer.tk%3A6969","udp%3A%2F%2Fexodus.desync.com%3A6969"],"infoHash":"5035f6451123eb23c3f38a8433964765596fdc21","infoHashBuffer":{"type":"Buffer","data":[80,53,246,69,17,35,235,35,195,243,138,132,51,150,71,101,89,111,220,33]},"announce":[],"urlList":[]}}